<svg width="150" height="150" viewBox="0 0 150 150" fill="none" xmlns="http://www.w3.org/2000/svg">
<g clip-path="url(#clip0_0_92)">
<path d="M75 83.9766C64.399 83.9766 55.7743 92.5913 55.7743 103.18C55.7743 113.769 64.399 122.384 75 122.384C85.601 122.384 94.2257 113.769 94.2257 103.18C94.2257 92.5913 85.601 83.9766 75 83.9766ZM75 116.539C67.6221 116.539 61.6196 110.546 61.6196 103.18C61.6196 95.8141 67.6221 89.8216 75 89.8216C82.3779 89.8216 88.3805 95.8141 88.3805 103.18C88.3805 110.546 82.3779 116.539 75 116.539Z" fill="#080A13"/>
<path d="M126.707 87.4589C125.959 85.1582 124.127 83.3763 121.807 82.6921L116.282 81.0639C110.36 70.0353 100.243 61.8469 88.3857 58.3056L89.6956 57.5539L110.557 46.8608C111.533 46.3607 112.147 45.3565 112.147 44.2599V19.0916H116.1C117.714 19.0916 119.023 17.7831 119.023 16.1689C119.023 14.5548 117.714 13.2463 116.1 13.2463H112.147V5.84529H115.124C116.738 5.84529 118.046 4.53682 118.046 2.92264C118.046 1.30847 116.738 0 115.124 0H34.8765C33.2623 0 31.9539 1.30847 31.9539 2.92264C31.9539 4.53682 33.2623 5.84529 34.8765 5.84529H37.8596V13.2463H33.9062C32.292 13.2463 30.9835 14.5548 30.9835 16.1689C30.9835 17.7831 32.292 19.0916 33.9062 19.0916H37.8596V44.2599C37.8596 45.3562 38.4734 46.3607 39.449 46.8608L60.3102 57.5539L61.6178 58.3041C49.758 61.8449 39.6401 70.0338 33.7174 81.0639L28.1927 82.6921C25.8721 83.376 24.0402 85.1579 23.2929 87.4589C22.5453 89.7596 22.9799 92.2775 24.4552 94.1945L28.3374 99.2392C28.2286 100.547 28.1731 101.868 28.1731 103.18C28.1731 114.837 32.4463 125.925 40.2317 134.544L40.0239 142.102C39.9572 144.52 41.0859 146.813 43.0427 148.234C44.9999 149.657 47.5298 150.021 49.8089 149.211L57.311 146.544C62.9254 148.838 68.8701 150 74.9997 150C81.1294 150 87.0737 148.838 92.6884 146.544L100.191 149.211C100.99 149.496 101.821 149.635 102.647 149.635C104.175 149.635 105.686 149.157 106.957 148.235C108.913 146.813 110.042 144.521 109.976 142.103L109.768 134.544C117.553 125.925 121.826 114.837 121.826 103.181C121.826 101.868 121.771 100.548 121.662 99.2395L125.544 94.1947C127.02 92.2772 127.454 89.7593 126.707 87.4589ZM107.752 78.5495L96.162 75.1336L88.9799 64.6559C96.4271 67.3643 102.968 72.2042 107.752 78.5495ZM68.9525 53.0831L67.6291 55.0138L64.6281 53.2918V19.0916H85.3783L85.3786 53.2918L82.3727 55.0167L81.0475 53.0834C79.68 51.0881 77.4191 49.8971 75.0003 49.8971C72.5815 49.8971 70.3203 51.0878 68.9525 53.0831ZM106.301 42.4736L91.2239 50.202V19.0916H106.301V42.4736ZM106.301 5.84529V13.2463H43.7049V5.84529H106.301ZM43.7049 19.0916H58.7823V50.202L43.7049 42.4736V19.0916ZM61.0201 64.6559L53.8383 75.1336L42.248 78.5498C47.0321 72.2045 53.5729 67.3643 61.0201 64.6559ZM34.1797 106.831L40.7595 115.381L40.4871 125.289C36.9291 119.752 34.7637 113.442 34.1797 106.831ZM75 144.155C72.113 144.155 69.2734 143.86 66.5013 143.276L75 140.254L83.4988 143.276C80.7266 143.86 77.887 144.155 75 144.155ZM103.521 143.505C103.284 143.677 102.791 143.932 102.149 143.703L93.6003 140.664C93.5921 140.661 93.5839 140.658 93.5757 140.655L75.9794 134.399C75.346 134.173 74.6546 134.173 74.0212 134.399L47.8513 143.703C47.2086 143.931 46.7161 143.677 46.4794 143.505C46.2429 143.333 45.849 142.943 45.8677 142.263L46.1082 133.515C46.1085 133.509 46.1085 133.503 46.1088 133.497L46.6311 114.502C46.6495 113.83 46.4358 113.172 46.0258 112.639L29.0882 90.6291C28.6729 90.0893 28.7623 89.5425 28.8526 89.2645C28.9432 88.9863 29.1922 88.4912 29.8457 88.2983L56.4874 80.4461C57.1321 80.2561 57.6918 79.8492 58.0718 79.2951L70.2563 61.519C70.2598 61.5138 70.2636 61.5085 70.2671 61.5032L73.7737 56.3874C74.1589 55.8254 74.7072 55.7415 74.9997 55.7415C75.2923 55.7415 75.8406 55.8254 76.2258 56.3874L79.7361 61.5088C79.7367 61.51 79.7376 61.5108 79.7382 61.512L91.928 79.2951C92.3079 79.8495 92.8676 80.2561 93.5123 80.4461L120.154 88.2983C120.807 88.4909 121.057 88.9863 121.147 89.2645C121.237 89.5425 121.327 90.0893 120.912 90.6291L103.974 112.639C103.564 113.172 103.35 113.83 103.369 114.502L103.891 133.497C103.891 133.503 103.891 133.509 103.892 133.515L104.132 142.263C104.151 142.943 103.757 143.333 103.521 143.505ZM109.513 125.289L109.241 115.381L115.821 106.831C115.236 113.442 113.071 119.752 109.513 125.289Z" fill="#080A13"/>
</g>
<defs>
<clipPath id="clip0_0_92">
<rect width="150" height="150" fill="white"/>
</clipPath>
</defs>
</svg>
