<svg width="150" height="150" viewBox="0 0 150 150" fill="none" xmlns="http://www.w3.org/2000/svg">
<g clip-path="url(#clip0_0_70)">
<path d="M125.784 36.8962C125.044 34.6195 123.232 32.8564 120.935 32.1797L95.799 24.7699L80.9842 3.15322C79.631 1.17891 77.3939 0 75 0C72.6062 0 70.3691 1.17891 69.0155 3.15352L54.201 24.7702L29.0646 32.1797C26.7683 32.8564 24.956 34.6198 24.2159 36.8962C23.4762 39.1729 23.906 41.6651 25.3658 43.5624L41.3467 64.3318L40.6263 90.5276C40.5604 92.9206 41.6775 95.1894 43.614 96.5965C45.5499 98.0033 48.0522 98.3651 50.3089 97.5627L64.6433 92.4653L60.6475 102.024H46.6114C41.6192 102.024 37.558 106.077 37.558 111.058V130.357C33.3516 130.637 30.015 134.141 30.015 138.409V147.07C30.015 148.688 31.3269 150 32.9446 150H117.056C118.674 150 119.986 148.688 119.986 147.07V138.409C119.986 134.142 116.649 130.637 112.443 130.358V111.058C112.443 106.077 108.381 102.025 103.389 102.025H89.3531L85.3573 92.4656L99.6914 97.5627C100.483 97.8442 101.305 97.9825 102.122 97.9825C103.634 97.9825 105.13 97.51 106.386 96.5968C108.323 95.1897 109.44 92.9209 109.374 90.5279L108.654 64.3321L124.634 43.5624C126.094 41.6651 126.524 39.1731 125.784 36.8962ZM114.126 138.409V144.141H35.874V138.409C35.874 137.191 36.8731 136.199 38.1012 136.199H111.899C113.127 136.199 114.126 137.191 114.126 138.409ZM91.4842 130.339H58.5158V122.023H91.4839L91.4842 130.339ZM106.583 111.058V130.339H97.3436V119.094C97.3436 117.475 96.0317 116.164 94.4139 116.164H55.5862C53.9684 116.164 52.6565 117.475 52.6565 119.094V130.339H43.4171V111.058C43.4171 109.308 44.85 107.884 46.6111 107.884H103.389C105.15 107.884 106.583 109.308 106.583 111.058ZM83.0019 102.025H66.9979L72.1029 89.8131L75 88.783L77.8972 89.8134L83.0019 102.025ZM119.99 39.9896L103.374 61.5847C102.963 62.1188 102.749 62.7782 102.768 63.4518L103.517 90.6891C103.534 91.3289 103.164 91.6951 102.942 91.8565C102.72 92.018 102.256 92.2567 101.654 92.0423L75.9815 82.9131C75.6639 82.8003 75.332 82.7438 74.9997 82.7438C74.6675 82.7438 74.3356 82.8003 74.018 82.9131L48.3451 92.0423C47.7431 92.2564 47.2799 92.018 47.0575 91.8565C46.8352 91.6951 46.4655 91.3289 46.4827 90.6891L47.2319 63.4518C47.2503 62.7782 47.0362 62.1188 46.6254 61.5847L30.0094 39.9896C29.6192 39.4825 29.7032 38.9684 29.7882 38.7073C29.8729 38.4463 30.107 37.9811 30.7207 37.8003L56.8565 30.0958C57.5031 29.9054 58.0638 29.4976 58.4449 28.9421L73.8487 6.46582C74.2105 5.93818 74.7252 5.85938 75 5.85938C75.2748 5.85938 75.7893 5.93818 76.1511 6.46582L91.5548 28.9418C91.936 29.4976 92.4967 29.9051 93.1433 30.0955L119.279 37.8C119.893 37.9808 120.127 38.446 120.212 38.707C120.296 38.9684 120.38 39.4825 119.99 39.9896Z" fill="#080A13"/>
<path d="M105.303 41.0106L87.7574 35.8386L77.4167 20.7501C76.8704 19.9532 75.9663 19.4766 75 19.4766C74.0338 19.4766 73.1297 19.9529 72.5834 20.7501L62.2427 35.8386L44.6974 41.0106C43.7705 41.284 43.038 41.9965 42.7392 42.9152C42.4407 43.8343 42.6144 44.8415 43.2036 45.607L54.3581 60.104L53.8553 78.3888C53.8287 79.3547 54.2801 80.2714 55.0618 80.8395C55.8434 81.4072 56.8542 81.5534 57.7656 81.2297L75 75.1014L92.2342 81.2297C92.5539 81.3434 92.8858 81.399 93.2157 81.399C93.8262 81.399 94.4303 81.2083 94.938 80.8395C95.7197 80.2714 96.1711 79.3547 96.1445 78.3888L95.6417 60.104L106.796 45.607C107.385 44.8412 107.559 43.834 107.261 42.9152C106.962 41.9965 106.23 41.284 105.303 41.0106ZM90.3627 57.3568C89.952 57.8909 89.7376 58.5504 89.7563 59.2239L90.17 74.277L75.9818 69.2317C75.6642 69.1189 75.3323 69.0624 75 69.0624C74.6678 69.0624 74.3359 69.1189 74.0183 69.2317L59.8301 74.277L60.2438 59.2239C60.2623 58.5504 60.0481 57.8909 59.6374 57.3568L50.4542 45.4222L64.8985 41.1642C65.5451 40.9737 66.1058 40.5659 66.487 40.0104L75 27.5886L83.5131 40.0102C83.8943 40.5659 84.455 40.9734 85.1016 41.1639L99.5458 45.4219L90.3627 57.3568Z" fill="#080A13"/>
<path d="M79.8135 48.3179C79.8135 46.6998 78.5016 45.3882 76.8838 45.3882H73.1162C71.4984 45.3882 70.1865 46.6998 70.1865 48.3179C70.1865 49.5674 70.9687 50.6338 72.0703 51.0551V56.0086C70.969 56.4299 70.1865 57.4963 70.1865 58.7458C70.1865 60.3639 71.4984 61.6755 73.1162 61.6755H76.8835C78.5013 61.6755 79.8132 60.3639 79.8132 58.7458C79.8132 57.4963 79.031 56.4299 77.9294 56.0086V51.0551C79.031 50.6341 79.8135 49.5674 79.8135 48.3179Z" fill="#080A13"/>
</g>
<defs>
<clipPath id="clip0_0_70">
<rect width="150" height="150" fill="white"/>
</clipPath>
</defs>
</svg>
