<svg width="65" height="61" viewBox="0 0 65 61" fill="none" xmlns="http://www.w3.org/2000/svg">
<path fill-rule="evenodd" clip-rule="evenodd" d="M45.4317 10.9903L37.6811 14.1093L32.0692 0.000156403L23.026 21.8198L18.0142 22.14C19.227 19.2405 20.8397 16.4218 22.8059 13.6823C19.8266 16.855 17.2874 19.7337 15.1616 22.3261C12.4159 25.6652 10.3566 28.5308 8.91032 30.9168L16.4547 37.3613C21.9863 34.3554 29.397 28.851 37.741 20.947L31.5431 19.6404L49.3303 10.9903H45.4317ZM5.51812 28.0178L0 23.2996L10.2698 22.6395C8.5372 24.3387 6.94447 26.1251 5.51812 28.0178Z" fill="white"/>
<path fill-rule="evenodd" clip-rule="evenodd" d="M16.4547 37.3611L8.91031 30.9165C3.17221 40.4066 7.17096 42.4062 16.4547 37.3611Z" fill="white"/>
<path fill-rule="evenodd" clip-rule="evenodd" d="M31.0363 16.7949L37.681 14.1092L34.5886 6.33817C36.2545 10.5235 34.0755 15.042 31.0363 16.7949Z" fill="white"/>
<path fill-rule="evenodd" clip-rule="evenodd" d="M18.0143 22.1462L15.1617 22.3261C12.416 25.6652 10.3567 28.5308 8.9104 30.9168L16.4548 37.3613C21.9864 34.3554 29.3971 28.851 37.7411 20.947C29.1906 27.8713 13.3222 33.6291 18.0143 22.1462Z" fill="white"/>
<path fill-rule="evenodd" clip-rule="evenodd" d="M16.4412 44.5721L12.2491 61C22.9259 50.1371 34.9083 33.1159 41.6594 23.3922L44.512 29.8367L49.3303 10.9901C46.5914 14.5888 43.719 18.0744 40.7199 21.4531C33.3358 29.757 25.1784 37.4143 16.4412 44.5721Z" fill="url(#paint0_linear_0_99)"/>
<path fill-rule="evenodd" clip-rule="evenodd" d="M46.5382 21.913L44.512 29.8367L41.6594 23.3922C34.9083 33.1159 22.9259 50.1371 12.2491 61C22.2992 54.8485 32.3425 48.6907 42.3925 42.5397C36.5012 47.4513 38.3543 52.4427 43.5923 55.7552L51.8894 61L46.3849 38.0343L64.1387 23.2994L46.5382 21.913Z" fill="white"/>
<path fill-rule="evenodd" clip-rule="evenodd" d="M22.3195 54.8354L26.4511 52.303C32.4895 41.9928 38.0539 30.7701 41.6594 23.3922C34.9083 33.1159 22.9259 50.1371 12.2491 61L22.3195 54.8354Z" fill="white"/>
<defs>
<linearGradient id="paint0_linear_0_99" x1="22.1589" y1="31.2821" x2="148.015" y2="100.005" gradientUnits="userSpaceOnUse">
<stop stop-color="white"/>
<stop offset="0.5" stop-color="#54B8EB"/>
<stop offset="1" stop-color="#3B3C9C"/>
</linearGradient>
</defs>
</svg>
