<svg width="1920" height="1010" viewBox="0 0 1920 1010" fill="none" xmlns="http://www.w3.org/2000/svg">
<path d="M393.118 842.539H50C22.3858 842.539 0 820.153 0 792.539V50C0 22.3858 22.3858 0 50 0H1870C1897.61 0 1920 22.3857 1920 50V752.767C1920 780.381 1897.61 802.767 1870 802.767H1467.73C1454.07 802.767 1441.01 808.356 1431.57 818.236L1347.68 906.091C1338.24 915.97 1325.18 921.56 1311.52 921.56H968.017C957.163 921.56 946.604 925.091 937.935 931.621L847.232 999.938C838.563 1006.47 828.004 1010 817.15 1010H592.008C578.089 1010 564.801 1004.2 555.339 993.991L429.787 858.548C420.325 848.34 407.036 842.539 393.118 842.539Z" fill="url(#paint0_linear_0_14)"/>
<defs>
<linearGradient id="paint0_linear_0_14" x1="0" y1="502.972" x2="1920" y2="502.972" gradientUnits="userSpaceOnUse">
<stop stop-color="#083270"/>
<stop offset="0.505036" stop-color="#086770"/>
<stop offset="1" stop-color="#088D70"/>
</linearGradient>
</defs>
</svg>
