<svg width="25" height="24" viewBox="0 0 25 24" fill="none" xmlns="http://www.w3.org/2000/svg">
<g clip-path="url(#clip0_0_213)">
<path d="M12.5 2C14.8869 2 17.1761 2.94821 18.864 4.63604C20.5518 6.32387 21.5 8.61305 21.5 11C21.5 14.074 19.824 16.59 18.058 18.395C17.1755 19.2869 16.2128 20.0956 15.182 20.811L14.756 21.101L14.556 21.234L14.179 21.474L13.843 21.679L13.427 21.921C13.1445 22.0818 12.825 22.1663 12.5 22.1663C12.175 22.1663 11.8555 22.0818 11.573 21.921L11.157 21.679L10.637 21.359L10.445 21.234L10.035 20.961C8.92298 20.2083 7.88707 19.3489 6.942 18.395C5.176 16.588 3.5 14.074 3.5 11C3.5 8.61305 4.44821 6.32387 6.13604 4.63604C7.82387 2.94821 10.1131 2 12.5 2ZM12.5 8C12.106 8 11.7159 8.0776 11.3519 8.22836C10.988 8.37913 10.6573 8.6001 10.3787 8.87868C10.1001 9.15726 9.87913 9.48797 9.72836 9.85195C9.5776 10.2159 9.5 10.606 9.5 11C9.5 11.394 9.5776 11.7841 9.72836 12.1481C9.87913 12.512 10.1001 12.8427 10.3787 13.1213C10.6573 13.3999 10.988 13.6209 11.3519 13.7716C11.7159 13.9224 12.106 14 12.5 14C13.2956 14 14.0587 13.6839 14.6213 13.1213C15.1839 12.5587 15.5 11.7956 15.5 11C15.5 10.2044 15.1839 9.44129 14.6213 8.87868C14.0587 8.31607 13.2956 8 12.5 8Z" fill="#F2F2F2"/>
</g>
<defs>
<clipPath id="clip0_0_213">
<rect width="24" height="24" fill="white" transform="translate(0.5)"/>
</clipPath>
</defs>
</svg>
