<svg width="1922" height="799" viewBox="0 0 1922 799" fill="none" xmlns="http://www.w3.org/2000/svg">
<path d="M169.201 78.8694L10.7917 210.91C3.95358 216.609 0 225.052 0 233.954V769C0 785.569 13.4314 799 30 799H505.875C512.526 799 518.987 796.79 524.245 792.718L593.546 739.045C598.803 734.973 605.265 732.764 611.915 732.764H1540.17C1545.24 732.764 1550.23 734.048 1554.67 736.497L1661.17 795.266C1665.61 797.715 1670.59 799 1675.66 799H1892C1908.57 799 1922 785.569 1922 769V101.914C1922 85.3452 1908.57 71.9138 1892 71.9138H1608.78C1603 71.9138 1597.33 70.2397 1592.47 67.0935L1496.33 4.8203C1491.47 1.67404 1485.81 0 1480.02 0H704.925C698.284 0 691.83 2.20358 686.576 6.26534L609.761 65.6485C604.507 69.7102 598.054 71.9138 591.413 71.9138H188.41C181.39 71.9138 174.593 74.3751 169.201 78.8694Z" fill="url(#paint0_linear_0_23)"/>
<defs>
<linearGradient id="paint0_linear_0_23" x1="0" y1="397.896" x2="1922" y2="397.896" gradientUnits="userSpaceOnUse">
<stop stop-color="#083270"/>
<stop offset="0.505036" stop-color="#086770"/>
<stop offset="1" stop-color="#088D70"/>
</linearGradient>
</defs>
</svg>
